<svg width="162" height="117" viewBox="0 0 162 117" fill="none" xmlns="http://www.w3.org/2000/svg">
<path d="M71.9801 28.349C76.2872 35.2481 81.2871 40.9401 83.6389 58.2597C89.6533 56.3095 92.1023 56.8235 95.0549 60.1817C85.4163 61.4428 82.4859 64.0961 82.9102 73.2751C84.9904 83.0018 88.8496 85.377 100.034 84.6868C95.5238 89.2525 92.441 90.7069 84.489 88.4107C82.942 93.2164 81.7887 95.7799 78.0524 99.5821C82.7667 100.782 86.8572 101.635 90.6828 102.183C91.2551 102.265 91.8214 102.34 92.3831 102.409C100.767 103.431 108.097 102.969 118.373 101.504C118.54 100.868 118.599 100.323 118.615 98.8614C114.388 92.3925 111.45 89.1314 109.143 84.0862C106.835 79.041 104.232 68.3973 102.585 57.4189C101.101 45.1784 104.649 32.0728 105.499 29.0697C106.349 26.0667 107.928 18.3788 107.928 18.3788C94.4006 18.6261 86.1108 20.2075 74.2875 26.9874C73.5335 27.4198 72.7651 27.8733 71.9801 28.349Z" fill="#E67B18"/>
<path d="M41.497 51.4127C46.7277 64.3048 47.2658 71.4572 44.1688 84.0862C44.9741 84.5927 45.7397 85.0702 46.4763 85.5241C51.9553 88.9005 55.8304 90.9706 62.5072 93.9363C70.9046 66.8038 67.6555 55.5023 58.9853 36.7576L41.497 51.4127Z" fill="#E67B18"/>
<path d="M35.4247 58.2597C32.608 56.1155 27.2407 53.7898 21.7134 51.6517C13.1538 48.3406 2.77555 53.9609 0.809081 62.9254C-0.223617 67.6332 -0.267936 72.504 0.67893 77.2298L0.885814 78.2623C2.86379 88.1343 13.414 93.7092 22.1055 88.6274C28.0094 85.1754 33.6821 81.1967 36.3963 77.4794C31.8825 70.3306 31.2374 66.1598 35.4247 58.2597Z" fill="#E67B18"/>
<path d="M41.497 51.4127L58.9853 36.7576C52.0426 33.3192 48.5409 31.9527 43.9259 35.5564C39.311 39.1601 39.6353 44.1605 41.497 51.4127Z" fill="#E67B18"/>
<path d="M107.928 18.3788L121.166 20.4618C109.229 8.50743 99.4269 3.72371 88.4968 6.48655C77.5666 9.24939 73.8639 15.3309 74.2875 26.9874C86.1108 20.2075 94.4006 18.6261 107.928 18.3788Z" fill="#E67B18"/>
<path d="M62.5072 93.9363C55.8304 90.9706 51.9553 88.9005 46.4763 85.5241C47.4876 94.7721 49.1481 98.0205 54.1274 100.303C59.1067 102.585 65.0641 100.972 70.4013 97.3562C67.9638 96.4768 65.5757 95.4199 62.5072 93.9363Z" fill="#E67B18"/>
<path d="M118.373 101.504C108.097 102.969 100.767 103.431 92.3831 102.409C92.6225 109.146 95.905 112.555 102.585 113.036C109.264 113.516 114.974 108.881 118.373 101.504Z" fill="#E67B18"/>
<path d="M46.4763 85.5241C45.7397 85.0702 44.9741 84.5927 44.1688 84.0862C40.9326 94.31 42.4686 101.264 51.9414 104.507C61.4142 107.751 67.3553 104.8 74.8948 98.7724C73.2814 98.3279 71.8328 97.8727 70.4013 97.3562C65.0641 100.972 59.1067 102.585 54.1274 100.303C49.1481 98.0205 47.4876 94.7721 46.4763 85.5241Z" fill="#B46012"/>
<path d="M90.6828 102.183C89.2107 111.633 91.7758 117 102.22 117C112.665 117 118.056 110.477 118.373 101.504C114.974 108.881 109.264 113.516 102.585 113.036C95.905 112.555 92.6225 109.146 92.3831 102.409C91.8214 102.34 91.2551 102.265 90.6828 102.183Z" fill="#B46012"/>
<path d="M83.6389 58.2597C77.0262 62.6019 75.3973 65.9823 75.2591 73.2751C76.0582 80.4659 77.7865 83.913 84.489 88.4107C92.441 90.7069 95.5238 89.2525 100.034 84.6868C88.8496 85.377 84.9904 83.0018 82.9102 73.2751C82.4859 64.0961 85.4163 61.4428 95.0549 60.1817C92.1023 56.8235 89.6533 56.3095 83.6389 58.2597Z" fill="#B46012"/>
<path d="M41.497 51.4127C39.6353 44.1605 39.311 39.1601 43.9259 35.5564C48.5409 31.9527 52.0426 33.3192 58.9853 36.7576L59.2365 36.5951C60.376 34.9433 48.5043 23.0291 40.0397 29.9106C31.1741 37.118 34.9023 44.6344 41.497 51.4127Z" fill="#B46012"/>
<path d="M86.6751 0.360277C73.9232 2.16215 64.1555 12.2845 71.9801 28.349C72.7651 27.8733 73.5335 27.4198 74.2875 26.9874C73.8639 15.3309 77.5666 9.24939 88.4968 6.48655C99.4269 3.72371 109.229 8.50743 121.166 20.4618C109.175 3.25017 99.4269 -1.44159 86.6751 0.360277Z" fill="#B46012"/>
<path d="M157.357 78.5605L158.936 75.077C151.137 77.4786 147.094 77.2392 140.597 73.2751L139.383 75.077C144.918 80.1194 148.849 80.9186 157.357 78.5605Z" fill="#B46012"/>
<path fill-rule="evenodd" clip-rule="evenodd" d="M114.729 46.6078C116.528 34.509 118.749 29.1076 123.959 20.9014C137.18 25.1504 143.002 28.9931 150.799 38.1991C157.256 46.7081 159.986 51.7704 161.243 61.9835C161.158 66.9109 161.026 69.6927 158.936 75.077C151.137 77.4786 147.094 77.2392 140.597 73.2751L139.383 75.077C144.918 80.1194 148.849 80.9186 157.357 78.5605C150.616 89.1374 144.913 92.8027 133.31 97.6601C128.907 93.1045 126.712 90.6637 123.23 86.4887C116.924 76.5738 115.646 71.5947 114.729 63.0646C113.868 56.046 114.102 52.6037 114.729 46.6078ZM145.819 47.3285C147.042 49.5142 146.927 51.4245 147.155 53.0944C147.229 53.6329 147.206 54.242 147.095 54.8962C146.288 59.6412 140.826 66.7593 133.675 66.5482C125.538 66.308 122.745 59.5811 122.137 54.8962C121.53 50.2114 125.052 40.9619 133.918 40.3613C139.452 39.9864 143.788 43.6968 145.819 47.3285Z" fill="#E67B18"/>
<path d="M138.411 45.1355C134.372 44.8539 130.76 46.3675 130.396 53.4548C130.031 60.542 136.225 63.0646 138.411 63.0646C140.597 63.0646 143.998 61.383 145.334 57.4189C146.67 53.4548 147.162 45.7925 138.411 45.1355Z" fill="black"/>
<path d="M107.928 18.3788C107.928 18.3788 106.349 26.0667 105.499 29.0697C104.649 32.0728 101.101 45.1784 102.585 57.4189C104.232 68.3973 106.835 79.041 109.143 84.0862C111.45 89.1314 114.388 92.3925 118.615 98.8614C118.599 100.323 118.54 100.868 118.373 101.504C123.602 100.507 126.908 99.6374 133.31 97.6601C128.907 93.1045 126.712 90.6637 123.23 86.4887C116.924 76.5738 115.646 71.5947 114.729 63.0646C113.868 56.046 114.102 52.6037 114.729 46.6078C116.528 34.509 118.749 29.1076 123.959 20.9014L121.166 20.4618L107.928 18.3788Z" fill="white"/>
<path d="M58.9853 36.7576C67.6555 55.5023 70.9046 66.8038 62.5072 93.9363C65.5757 95.4199 67.9638 96.4768 70.4013 97.3562C71.8328 97.8727 73.2814 98.3279 74.8948 98.7724C75.8754 99.0425 76.9168 99.3086 78.0524 99.5821C81.7887 95.7799 82.942 93.2164 84.489 88.4107C77.7865 83.913 76.0582 80.4659 75.2591 73.2751C75.3973 65.9823 77.0262 62.6019 83.6389 58.2597C81.2871 40.9401 76.2872 35.2481 71.9801 28.349L59.2365 36.5951C59.1825 36.6733 59.0994 36.7285 58.9853 36.7576Z" fill="white"/>
<path d="M35.4247 58.2597C31.2374 66.1598 31.8825 70.3306 36.3963 77.4794L44.1688 84.0862C47.2658 71.4572 46.7277 64.3048 41.497 51.4127L35.4247 58.2597Z" fill="white"/>
<path fill-rule="evenodd" clip-rule="evenodd" d="M133.918 40.3613C125.052 40.9619 121.53 50.2114 122.137 54.8962C122.745 59.5811 125.538 66.308 133.675 66.5482C140.826 66.7593 146.288 59.6412 147.095 54.8962C147.206 54.242 147.229 53.6329 147.155 53.0944C146.927 51.4245 147.042 49.5142 145.819 47.3285C143.788 43.6968 139.452 39.9864 133.918 40.3613ZM130.396 53.4548C130.76 46.3675 134.372 44.8539 138.411 45.1355C147.162 45.7925 146.67 53.4548 145.334 57.4189C143.998 61.383 140.597 63.0646 138.411 63.0646C136.225 63.0646 130.031 60.542 130.396 53.4548Z" fill="white"/>
</svg>
